<svg width="101" height="40" viewBox="0 0 101 40" fill="none" xmlns="http://www.w3.org/2000/svg">
<g id="Logo_ewo_lution_4c 1" clip-path="url(#clip0_131272_300841)">
<path id="Vector" d="M40 20C40 31.0446 31.0446 40 20 40C8.95535 40 0 31.0446 0 20C0 8.95535 8.95535 0 20 0C31.0446 0 40 8.95535 40 20Z" fill="#006179"/>
<g id="Group">
<path id="Vector_2" d="M2.78857 20.1769V20.139C2.78857 17.3673 4.76414 15.0842 7.58638 15.0842C10.8299 15.0842 12.3126 17.6032 12.3126 20.3538C12.3126 20.5729 12.2957 20.8256 12.2747 21.0783H5.52657C5.80037 22.3294 6.6681 22.9781 7.89809 22.9781C8.82059 22.9781 9.49034 22.6874 10.2528 21.984L11.8282 23.3782C10.9225 24.5029 9.61671 25.1895 7.86018 25.1895C4.94527 25.1895 2.78857 23.1424 2.78857 20.1727V20.1769ZM9.63356 19.3639C9.46928 18.1339 8.74477 17.2999 7.58638 17.2999C6.428 17.2999 5.70349 18.1171 5.48445 19.3639H9.63356Z" fill="white"/>
<path id="Vector_3" d="M12.1736 15.2654H14.9621L16.5207 21.15L18.3488 15.2275H20.7203L22.5695 21.1669L24.1618 15.2612H26.8956L23.8711 25.0422H21.3901L19.524 19.0818L17.6201 25.0422H15.1559L12.1652 15.2612L12.1736 15.2654Z" fill="white"/>
<path id="Vector_4" d="M26.6724 20.1769V20.139C26.6724 17.3504 28.9175 15.0842 31.942 15.0842C34.9664 15.0842 37.1778 17.3125 37.1778 20.1011V20.139C37.1778 22.9275 34.9327 25.1937 31.9083 25.1937C28.8838 25.1937 26.6724 22.9654 26.6724 20.1769ZM34.4609 20.1769V20.139C34.4609 18.7068 33.4289 17.46 31.9083 17.46C30.3876 17.46 29.3893 18.6731 29.3893 20.1053V20.1432C29.3893 21.5754 30.4213 22.8222 31.942 22.8222C33.4626 22.8222 34.4609 21.6091 34.4609 20.1769Z" fill="white"/>
</g>
<path id="Vector_5" d="M100.804 15.6782H91.4321V25.0506H100.804V15.6782Z" fill="#CD1719"/>
<path id="Vector_6" d="M99.1576 19.3934H97.0893V17.3252H95.1475V19.3934H93.0792V21.3353H95.1475V23.4035H97.0893V21.3353H99.1576V19.3934Z" fill="white"/>
<g id="Group_2">
<path id="Vector_7" d="M43.3403 11.8367H44.7346V25.0591H43.3403V11.8367Z" fill="#878787"/>
<path id="Vector_8" d="M47.3926 21.508V15.6951H48.7868V21.1668C48.7868 22.9065 49.7304 23.9933 51.3774 23.9933C53.0244 23.9933 54.187 22.8181 54.187 21.0573V15.6951H55.5644V25.059H54.187V23.4289C53.5552 24.444 52.5948 25.257 50.9815 25.257C48.7152 25.257 47.3968 23.7364 47.3968 21.508H47.3926Z" fill="#878787"/>
<path id="Vector_9" d="M58.6479 22.578V16.9251H57.342V15.6951H58.6479V12.8687H60.0421V15.6951H63.0118V16.9251H60.0421V22.3969C60.0421 23.5384 60.674 23.9554 61.6175 23.9554C62.0893 23.9554 62.4853 23.867 62.9739 23.6311V24.8274C62.4853 25.0801 61.9587 25.2275 61.289 25.2275C59.7852 25.2275 58.6436 24.4862 58.6436 22.5822L58.6479 22.578Z" fill="#878787"/>
<path id="Vector_10" d="M64.7725 12.1062H66.3647V13.6437H64.7725V12.1062ZM64.8609 15.6909H66.2552V25.0548H64.8609V15.6909Z" fill="#878787"/>
<path id="Vector_11" d="M68.4036 20.4213V20.3834C68.4036 17.7381 70.4676 15.4929 73.294 15.4929C76.1205 15.4929 78.1677 17.7044 78.1677 20.3455V20.3834C78.1677 23.0287 76.0826 25.2739 73.2603 25.2739C70.4381 25.2739 68.4078 23.0624 68.4078 20.4213H68.4036ZM76.7355 20.4213V20.3834C76.7355 18.3741 75.2317 16.7229 73.2561 16.7229C71.2806 16.7229 69.8315 18.3699 69.8315 20.3455V20.3834C69.8315 22.3927 71.3185 24.0228 73.2898 24.0228C75.2612 24.0228 76.7313 22.3927 76.7313 20.4171L76.7355 20.4213Z" fill="#878787"/>
<path id="Vector_12" d="M80.2864 15.695H81.6807V17.3252C82.2957 16.31 83.273 15.4971 84.8863 15.4971C87.1525 15.4971 88.4709 17.0177 88.4709 19.246V25.059H87.0767V19.5872C87.0767 17.8475 86.1331 16.7608 84.4861 16.7608C82.8391 16.7608 81.6765 17.936 81.6765 19.6967V25.059H80.2822V15.695H80.2864Z" fill="#878787"/>
</g>
</g>
<defs>
<clipPath id="clip0_131272_300841">
<rect width="100.805" height="40" fill="white"/>
</clipPath>
</defs>
</svg>
