<svg width="123" height="32" viewBox="0 0 123 32" fill="none" xmlns="http://www.w3.org/2000/svg">
<g id="Swiss-Leaders_Logo(Edited) 2" clip-path="url(#clip0_7820_4788)">
<g id="Group">
<path id="Vector" d="M31.4933 17.4229H17.145V31.7835H20.0171V20.2973H31.4933V17.4229Z" fill="#D11F44"/>
<path id="Vector_2" d="M11.4768 0.1875V11.6737H0V14.5482H14.3489V0.1875H11.4768Z" fill="#D11F44"/>
<path id="Vector_3" d="M0 31.7829V28.7918H0.710049C6.58253 28.7918 11.3602 24.0102 11.3602 18.1335V17.4229H14.3489V18.1335C14.3489 25.6599 8.23093 31.7829 0.710663 31.7829H0Z" fill="#D11F44"/>
<path id="Vector_4" d="M31.4933 0.1875V3.17867H30.7832C24.9108 3.17867 20.1337 7.95963 20.1337 13.8369V14.547H17.145V13.8376C17.145 6.31111 23.263 0.188114 30.7832 0.188114L31.4933 0.1875Z" fill="#D11F44"/>
<path id="Vector_5" d="M71.4063 0.1875H68.5342V14.5482H71.4063V0.1875Z" fill="#262626"/>
<path id="Vector_6" d="M40.1089 29.3538V17.4229H37.2368V31.7835H46.5527V29.3538H40.1089Z" fill="#262626"/>
<path id="Vector_7" d="M57.6594 17.4229H47.7317V31.7835H57.6594V29.3538H50.6032V25.808H57.0476V23.3782H50.6032V19.852H57.6594V17.4229Z" fill="#262626"/>
<path id="Vector_8" d="M77.6557 29.3538H75.976V19.852H77.6539C80.4272 19.852 82.016 21.7094 82.016 24.6029C82.016 27.4964 80.429 29.3538 77.6557 29.3538ZM77.6557 17.4229H73.0076V31.7835H77.6557C82.0473 31.7835 84.8795 28.8599 84.8795 24.6029C84.8795 20.3458 82.0473 17.4229 77.6557 17.4229Z" fill="#262626"/>
<path id="Vector_9" d="M96.4095 17.4229H86.4817V31.7835H96.4095V29.3538H89.3538V25.808H95.7976V23.3782H89.3538V19.852H96.4095V17.4229Z" fill="#262626"/>
<path id="Vector_10" d="M101.467 19.8526H104.697C105.891 19.8526 106.73 20.6923 106.73 21.8875C106.73 23.0926 105.881 23.9518 104.697 23.9518H101.47L101.467 19.8526ZM110.013 31.7842L106.331 26.1249C108.305 25.5107 109.588 23.8523 109.588 21.8869C109.588 19.3484 107.476 17.4229 104.693 17.4229H98.5938V31.7842H101.466V26.3792H103.285L106.71 31.7842H110.013Z" fill="#262626"/>
<path id="Vector_11" d="M45.0332 4.19747H47.8752C47.4315 1.6 45.2602 0 42.142 0C38.9085 0 36.6752 1.76768 36.6752 4.35532C36.6752 6.75562 38.3034 8.2076 41.3326 8.51347L42.7048 8.65167C44.5201 8.83962 45.2504 9.34326 45.2504 10.4095C45.2504 11.7528 43.8095 12.3553 42.2899 12.3553C40.633 12.3553 39.4381 11.6441 39.1521 10.3014H36.3101C36.7439 13.136 39.0238 14.7354 42.2899 14.7354C45.556 14.7354 48.1201 13.1384 48.1201 10.1331C48.1201 7.64438 46.4919 6.27163 43.0086 5.8767L41.629 5.71823C40.1291 5.55056 39.4479 5.05674 39.4479 4.15816C39.4479 3.31854 40.2371 2.38987 42.142 2.38987C43.8984 2.38987 44.7766 3.16069 45.0332 4.19747Z" fill="#262626"/>
<path id="Vector_12" d="M82.2621 4.19747H85.1041C84.6604 1.6 82.4891 0 79.3709 0C76.1343 0 73.9035 1.76768 73.9035 4.35532C73.9035 6.75562 75.5322 8.2076 78.5615 8.51347L79.9331 8.65167C81.749 8.83962 82.4793 9.34326 82.4793 10.4095C82.4793 11.7528 81.0383 12.3553 79.5188 12.3553C77.8618 12.3553 76.667 11.6441 76.381 10.3014H73.5383C73.9728 13.136 76.2521 14.7354 79.5188 14.7354C82.7855 14.7354 85.349 13.1384 85.349 10.1331C85.349 7.64438 83.7208 6.27163 80.2375 5.8767L78.8603 5.71823C77.3598 5.55056 76.6792 5.05674 76.6792 4.15816C76.6792 3.31854 77.4685 2.38987 79.3734 2.38987C81.1273 2.38987 82.0055 3.16069 82.2621 4.19747Z" fill="#262626"/>
<path id="Vector_13" d="M95.4657 4.19747H98.3077C97.8634 1.6 95.6927 0 92.5739 0C89.3373 0 87.1071 1.76768 87.1071 4.35532C87.1071 6.75562 88.7352 8.2076 91.7651 8.51347L93.1367 8.65167C94.9526 8.83962 95.6823 9.34326 95.6823 10.4095C95.6823 11.7528 94.242 12.3553 92.7218 12.3553C91.0648 12.3553 89.87 11.6441 89.584 10.3014H86.7419C87.1758 13.136 89.4557 14.7354 92.7218 14.7354C95.9879 14.7354 98.552 13.1384 98.552 10.1331C98.552 7.64438 96.9238 6.27163 93.4398 5.8767L92.0609 5.71823C90.561 5.55056 89.8798 5.05674 89.8798 4.15816C89.8798 3.31854 90.6696 2.38987 92.5739 2.38987C94.3309 2.38987 95.2091 3.16069 95.4657 4.19747Z" fill="#262626"/>
<path id="Vector_14" d="M119.651 21.4357H122.494C122.05 18.8383 119.879 17.2383 116.76 17.2383C113.524 17.2383 111.294 19.0066 111.294 21.5942C111.294 23.9939 112.922 25.4459 115.952 25.7518L117.323 25.8906C119.139 26.0748 119.869 26.5815 119.869 27.6484C119.869 28.9917 118.428 29.5942 116.909 29.5942C115.252 29.5942 114.057 28.883 113.771 27.5397H110.928C111.363 30.3742 113.642 31.9742 116.909 31.9742C120.176 31.9742 122.739 30.3773 122.739 27.372C122.739 24.8827 121.111 23.5099 117.628 23.115L116.246 22.9571C114.746 22.7888 114.065 22.295 114.065 21.3964C114.065 20.5568 114.854 19.6288 116.759 19.6288C118.516 19.6257 119.394 20.3959 119.651 21.4357Z" fill="#262626"/>
<path id="Vector_15" d="M66.7703 17.4229H63.7902L58.5007 31.7835H61.5502L62.5861 28.7217H67.9744L69.0208 31.7835H72.0604L66.7703 17.4229ZM63.3858 26.292L65.2803 20.2273L67.1754 26.292H63.3858Z" fill="#262626"/>
<path id="Vector_16" d="M64.0218 0.1875L61.7689 10.9502L59.2945 0.1875H56.3144L53.8399 10.9502L51.5871 0.1875H48.6069L52.3468 14.5482H55.3275L57.8044 3.77383L60.2813 14.5482H63.262L67.0019 0.1875H64.0218Z" fill="#262626"/>
</g>
</g>
<defs>
<clipPath id="clip0_7820_4788">
<rect width="122.74" height="32" fill="white"/>
</clipPath>
</defs>
</svg>
